#!OML:ASF E:\motion texture\Top Level 1\Subject 1\Session 1\male.ASF
:FULLY-SPECIFIED
:DEGREES
241
root -1.77759 18.1018 4.20218 447.061 -76.7562 -452.192
lowerback 6.09135 2.82416 11.1497
upperback -0.0803624 4.54433 4.13222
thorax -2.98005 2.04992 -2.26858
lowerneck -16.2709 -6.10266 -7.65746
upperneck 14.8844 -8.32848 9.38957
head 8.00936 -3.5635 3.36733
rclavicle 9.53545e-015 -2.0276e-014
rhumerus -21.5235 6.44655 -86.5213
rradius 63.5565
rwrist 4.21828
rhand -11.0752 -8.96261
rfingers 7.12502
rthumb 14.9481 -38.4032
lclavicle 9.53545e-015 -2.0276e-014
lhumerus -50.3616 9.05297 75.1257
lradius 38.41
lwrist -14.2304
lhand -5.41779 10.572
lfingers 7.12502
lthumb 20.3919 39.5213
rfemur 4.17113 3.88722 40.5009
rtibia 22.9622
rfoot 349.33 -5.48665
rtoes 9.953
lfemur -88.1506 6.23755 -8.99968
ltibia 68.2556
lfoot 381.431 191.05
ltoes 8.66497
242
root -1.91726 18.1131 4.20334 447.814 -76.8256 -453.095
lowerback 6.18148 2.92766 11.0854
upperback 0.00251713 4.68274 4.09081
thorax -2.9283 2.12496 -2.28847
lowerneck -16.2847 -6.14185 -7.69965
upperneck 14.8166 -8.36744 9.40632
head 7.99557 -3.5829 3.37413
rclavicle -2.93176e-014 3.42904e-014
rhumerus -21.4414 6.41624 -86.5008
rradius 64.4371
rwrist 3.96086
rhand -10.9574 -8.96154
rfingers 7.12502
rthumb 15.0615 -38.3936
lclavicle -2.93176e-014 3.42904e-014
lhumerus -50.9461 9.36633 74.5031
lradius 38.3858
lwrist -14.0414
lhand -5.51993 10.2249
lfingers 7.12502
lthumb 20.2938 39.1846
rfemur 4.80177 3.9355 40.4497
rtibia 23.0104
rfoot 349.412 -5.31305
rtoes 9.12793
lfemur -88.9028 6.08118 -9.14468
ltibia 69.1133
lfoot 380.904 191.35
ltoes 8.14319
243
root -2.05615 18.1231 4.20484 448.701 -76.8949 -454.092
lowerback 6.2473 3.03762 11.0174
upperback 0.0770176 4.82659 4.0506
thorax -2.87156 2.20273 -2.30415
lowerneck -16.3165 -6.17875 -7.72037
upperneck 14.756 -8.40272 9.39802
head 7.98486 -3.60093 3.36917
rclavicle 5.57529e-015 -5.41688e-014
rhumerus -21.3994 6.3464 -86.4833
rradius 65.2598
rwrist 3.66794
rhand -10.824 -8.9597
rfingers 7.12502
rthumb 15.1901 -38.3821
lclavicle 5.57529e-015 -5.41688e-014
lhumerus -51.4728 9.66731 73.9257
lradius 38.3406
lwrist -13.8571
lhand -5.59517 9.91129
lfingers 7.12502
lthumb 20.2215 38.8787
rfemur 5.35011 4.02591 40.3995
rtibia 23.131
rfoot 349.491 -5.15242
rtoes 8.28474
lfemur -89.5003 5.96963 -9.27157
ltibia 70.0131
lfoot 380.413 191.511
ltoes 7.57345
244
root -2.19392 18.1319 4.20663 449.711 -76.9433 -455.165
lowerback 6.28177 3.14832 10.9615
upperback 0.136327 4.96898 4.01535
thorax -2.81298 2.27913 -2.31949
lowerneck -16.3476 -6.20629 -7.76417
upperneck 14.7009 -8.42737 9.42552
head 7.97761 -3.61202 3.38143
rclavicle -4.57453e-014 -4.90004e-014
rhumerus -21.3953 6.25342 -86.4776
rradius 66.0083
rwrist 3.37044
rhand -10.6706 -8.94867
rfingers 7.12502
rthumb 15.3378 -38.3598
lclavicle -4.57453e-014 -4.90004e-014
lhumerus -51.9617 9.94596 73.3936
lradius 38.295
lwrist -13.6927
lhand -5.63312 9.65479
lfingers 7.12502
lthumb 20.185 38.6261
rfemur 5.80556 4.14535 40.369
rtibia 23.3209
rfoot 349.569 -5.00168
rtoes 7.44346
lfemur -89.9617 5.90434 -9.36095
ltibia 70.9497
lfoot 379.982 191.571
ltoes 6.94177
245
root -2.33106 18.1396 4.20869 450.823 -76.9726 -456.296
lowerback 6.28887 3.26076 10.9193
upperback 0.181701 5.11189 3.98232
thorax -2.75279 2.35522 -2.33844
lowerneck -16.3863 -6.23042 -7.80674
upperneck 14.6555 -8.44992 9.46193
head 7.97513 -3.62093 3.39663
rclavicle -9.34288e-015 6.95746e-015
rhumerus -21.4174 6.13368 -86.4797
rradius 66.6729
rwrist 3.10199
rhand -10.5172 -8.90897
rfingers 7.12502
rthumb 15.4855 -38.3088
lclavicle -9.34288e-015 6.95746e-015
lhumerus -52.4102 10.204 72.9063
lradius 38.2525
lwrist -13.5876
lhand -5.64109 9.42889
lfingers 7.12502
lthumb 20.1773 38.401
rfemur 6.18554 4.27527 40.3503
rtibia 23.5561
rfoot 349.647 -4.85301
rtoes 6.63422
lfemur -90.288 5.87903 -9.41328
ltibia 71.9245
lfoot 379.625 191.592
ltoes 6.23756
246
root -2.46762 18.146 4.21089 451.983 -76.9797 -457.426
lowerback 6.26512 3.36915 10.8956
upperback 0.209691 5.24786 3.9492
thorax -2.69284 2.42707 -2.36525
lowerneck -16.4375 -6.25025 -7.84037
upperneck 14.6246 -8.46996 9.50151
head 7.97922 -3.62735 3.41155
rclavicle -3.85953e-014 -1.2424e-014
rhumerus -21.4488 5.99159 -86.496
rradius 67.232
rwrist 2.903
rhand -10.3619 -8.8564
rfingers 7.12502
rthumb 15.6351 -38.2446
lclavicle -3.85953e-014 -1.2424e-014
lhumerus -52.8272 10.4361 72.4611
lradius 38.2251
lwrist -13.5494
lhand -5.61484 9.23249
lfingers 7.12502
lthumb 20.2026 38.2019
rfemur 6.494 4.40021 40.3425
rtibia 23.8182
rfoot 349.723 -4.70485
rtoes 5.88401
lfemur -90.4931 5.88228 -9.42453
ltibia 72.9382
lfoot 379.352 191.632
ltoes 5.50798
247
root -2.60372 18.151 4.21318 453.165 -76.9631 -458.533
lowerback 6.21129 3.47084 10.8926
upperback 0.223584 5.37326 3.91618
thorax -2.63022 2.4931 -2.4005
lowerneck -16.4897 -6.26454 -7.87499
upperneck 14.596 -8.4857 9.55745
head 7.98469 -3.63033 3.4327
rclavicle -1.06226e-015 -2.42517e-014
rhumerus -21.4826 5.83775 -86.5268
rradius 67.6865
rwrist 2.79037
rhand -10.2156 -8.79353
rfingers 7.12502
rthumb 15.776 -38.1706
lclavicle -1.06226e-015 -2.42517e-014
lhumerus -53.2138 10.6406 72.0628
lradius 38.2195
lwrist -13.5641
lhand -5.56693 9.06164
lfingers 7.12502
lthumb 20.2486 38.0262
rfemur 6.75004 4.50906 40.3438
rtibia 24.0822
rfoot 349.795 -4.55376
rtoes 5.19542
lfemur -90.5785 5.90941 -9.39244
ltibia 73.9909
lfoot 379.173 191.723
ltoes 4.83415
248
root -2.73954 18.1545 4.21558 454.31 -76.9249 -459.567
lowerback 6.1302 3.56098 10.9115
upperback 0.228303 5.48158 3.8833
thorax -2.56188 2.55036 -2.44439
lowerneck -16.5458 -6.27402 -7.90802
upperneck 14.5641 -8.49656 9.6229
head 7.98974 -3.63 3.45734
rclavicle 8.92667e-015 3.28989e-014
rhumerus -21.5087 5.67455 -86.5726
rradius 68.035
rwrist 2.76056
rhand -10.0848 -8.72145
rfingers 7.12502
rthumb 15.902 -38.0886
lclavicle 8.92667e-015 3.28989e-014
lhumerus -53.5657 10.8232 71.7156
lradius 38.2381
lwrist -13.615
lhand -5.51214 8.90136
lfingers 7.12502
lthumb 20.3013 37.8603
rfemur 6.97235 4.59082 40.3499
rtibia 24.3282
rfoot 349.859 -4.39749
rtoes 4.56978
lfemur -90.5419 5.94937 -9.31975
ltibia 75.0855
lfoot 379.097 191.896
ltoes 4.30398
249
root -2.87508 18.1563 4.21802 455.455 -76.8744 -460.564
lowerback 6.02036 3.6454 10.942
upperback 0.225183 5.57955 3.84725
thorax -2.4853 2.60259 -2.49496
lowerneck -16.6092 -6.28119 -7.92932
upperneck 14.5325 -8.50593 9.68479
head 7.99535 -3.62842 3.47894
rclavicle 5.6312e-014 8.24956e-015
rhumerus -21.5342 5.50521 -86.6311
rradius 68.2989
rwrist 2.78616
rhand -9.97768 -8.64046
rfingers 7.12502
rthumb 16.0051 -37.9993
lclavicle 5.6312e-014 8.24956e-015
lhumerus -53.8832 10.9677 71.4281
lradius 38.289
lwrist -13.6652
lhand -5.4494 8.75537
lfingers 7.12502
lthumb 20.3616 37.7079
rfemur 7.16846 4.65678 40.3509
rtibia 24.5465
rfoot 349.913 -4.23451
rtoes 4.00367
lfemur -90.3857 6.00908 -9.21674
ltibia 76.2234
lfoot 379.111 192.178
ltoes 3.93366
250
root -3.01042 18.1563 4.22066 456.598 -76.8178 -461.53
lowerback 5.89275 3.72389 10.9794
upperback 0.215044 5.66813 3.80752
thorax -2.40604 2.65008 -2.55102
lowerneck -16.6684 -6.28576 -7.94414
upperneck 14.4888 -8.51234 9.74597
head 7.99565 -3.62543 3.49971
rclavicle 1.87355e-014 2.5842e-015
rhumerus -21.5631 5.34479 -86.6998
rradius 68.4877
rwrist 2.81411
rhand -9.88207 -8.5609
rfingers 7.12502
rthumb 16.0972 -37.9123
lclavicle 1.87355e-014 2.5842e-015
lhumerus -54.1683 11.0717 71.2046
lradius 38.3725
lwrist -13.6787
lhand -5.38804 8.62782
lfingers 7.12502
lthumb 20.4205 37.5741
rfemur 7.35082 4.70719 40.3387
rtibia 24.7325
rfoot 349.951 -4.05922
rtoes 3.46968
lfemur -90.1055 6.08693 -9.09399
ltibia 77.4094
lfoot 379.199 192.598
ltoes 3.66329
251
root -3.14586 18.1544 4.22354 457.789 -76.7684 -462.521
lowerback 5.74825 3.80229 11.0068
upperback 0.201485 5.75389 3.76288
thorax -2.32147 2.69663 -2.60504
lowerneck -16.7279 -6.2899 -7.95515
upperneck 14.4339 -8.51678 9.80169
head 7.99164 -3.62192 3.51823
rclavicle 1.12469e-014 4.01545e-014
rhumerus -21.5909 5.20202 -86.7719
rradius 68.6138
rwrist 2.79051
rhand -9.79252 -8.49661
rfingers 7.12502
rthumb 16.1834 -37.8411
lclavicle 1.12469e-014 4.01545e-014
lhumerus -54.4162 11.1421 71.0509
lradius 38.4865
lwrist -13.6401
lhand -5.33086 8.51906
lfingers 7.12502
lthumb 20.4755 37.4594
rfemur 7.53309 4.76053 40.3018
rtibia 24.8761
rfoot 349.974 -3.8748
rtoes 2.96972
lfemur -89.6992 6.19045 -8.96653
ltibia 78.6505
lfoot 379.361 193.179
ltoes 3.49755
252
root -3.28166 18.1504 4.22678 459.037 -76.7376 -463.542
lowerback 5.58104 3.88156 11.0129
upperback 0.183833 5.83683 3.71036
thorax -2.22987 2.74253 -2.65349
lowerneck -16.7824 -6.29313 -7.96323
upperneck 14.3627 -8.51852 9.85308
head 7.98079 -3.61769 3.53523
rclavicle 3.0501e-015 4.96962e-014
rhumerus -21.6232 5.08859 -86.8446
rradius 68.694
rwrist 2.66503
rhand -9.69392 -8.46528
rfingers 7.12502
rthumb 16.2784 -37.802
lclavicle 3.0501e-015 4.96962e-014
lhumerus -54.6227 11.1805 70.9641
lradius 38.6177
lwrist -13.5393
lhand -5.27841 8.43277
lfingers 7.12502
lthumb 20.5259 37.3677
rfemur 7.71373 4.8267 40.2302
rtibia 24.9796
rfoot 349.971 -3.68918
rtoes 2.51782
lfemur -89.1746 6.31568 -8.84918
ltibia 79.9512
lfoot 379.592 193.986
ltoes 3.36991
253
root -3.41808 18.1444 4.23049 460.377 -76.7273 -464.631
lowerback 5.39105 3.96427 10.9932
upperback 0.164413 5.92002 3.64976
thorax -2.12884 2.78955 -2.69422
lowerneck -16.8399 -6.2976 -7.96606
upperneck 14.2839 -8.51994 9.8932
head 7.96712 -3.61404 3.54754
rclavicle 2.43418e-014 -1.78906e-015
rhumerus -21.6568 5.01283 -86.9143
rradius 68.744
rwrist 2.41081
rhand -9.57796 -8.47195
rfingers 7.12502
rthumb 16.39 -37.7995
lclavicle 2.43418e-014 -1.78906e-015
lhumerus -54.7933 11.1882 70.9453
lradius 38.7727
lwrist -13.3778
lhand -5.23214 8.35406
lfingers 7.12502
lthumb 20.5704 37.2842
rfemur 7.89966 4.9188 40.125
rtibia 25.0409
rfoot 349.947 -3.50781
rtoes 2.10179
lfemur -88.5322 6.46533 -8.74585
ltibia 81.5812
lfoot 380.739 209.397
ltoes 3.24117
254
root -3.55531 18.1365 4.23464 461.806 -76.7369 -465.783
lowerback 5.17855 4.04833 10.9488
upperback 0.140865 6.00124 3.58056
thorax -2.02121 2.83631 -2.72824
lowerneck -16.9002 -6.30096 -7.97227
upperneck 14.1963 -8.51811 9.93469
head 7.95091 -3.60892 3.56121
rclavicle -2.84821e-015 -1.39149e-014
rhumerus -21.6952 4.97369 -86.9836
rradius 68.777
rwrist 2.04337
rhand -9.43655 -8.51017
rfingers 7.12502
rthumb 16.5262 -37.8264
lclavicle -2.84821e-015 -1.39149e-014
lhumerus -54.9243 11.1751 70.9833
lradius 38.936
lwrist -13.169
lhand -5.19046 8.27325
lfingers 7.12502
lthumb 20.6104 37.199
rfemur 8.08948 5.04115 39.9893
rtibia 25.0596
rfoot 349.905 -3.3384
rtoes 1.69957
lfemur -87.7794 6.63658 -8.65709
ltibia 83.6005
lfoot 382.446 224.827
ltoes 3.06277
